<svg xmlns="http://www.w3.org/2000/svg" xmlns:xlink="http://www.w3.org/1999/xlink" version="1.1" x="0px" y="0px" viewBox="0 0 100 125" style="enable-background:new 0 0 100 100;" xml:space="preserve"><g><g><g><g><g><g><path d="M50,85.12c-1.1,0-2-0.9-2-2V28.78c0-1.1,0.9-2,2-2s2,0.9,2,2v54.33C52,84.22,51.1,85.12,50,85.12z"/></g></g></g></g></g><g><g><g><g><g><path d="M50,30.66c-3.53,0-6.4-2.76-6.4-6.15c0-3.39,2.87-6.15,6.4-6.15s6.4,2.76,6.4,6.15C56.4,27.9,53.53,30.66,50,30.66z         M50,22.36c-1.32,0-2.4,0.96-2.4,2.15s1.08,2.15,2.4,2.15s2.4-0.96,2.4-2.15S51.32,22.36,50,22.36z"/></g></g></g></g></g><g><g><g><g><g><g><g><g><path d="M37.25,46.97c-2.07,0-4.25-0.55-5.1-0.79C14.08,40.97,4.8,29.09,4.41,28.59c-0.43-0.56-0.53-1.31-0.27-1.97           C4.41,25.96,5,25.49,5.7,25.39c8.04-1.19,12.7-5.14,13.12-5.51c3.71-3.78,7.3-5.43,10.68-4.91           c3.93,0.61,5.84,3.84,6.34,4.82c6.23,12.33,10.95,12.33,13.77,12.33c1.1,0,2,0.9,2,2s-0.9,2-2,2           c-5.19,0-10.88-1.76-17.34-14.53c-0.2-0.39-1.28-2.34-3.38-2.67c-2.02-0.32-4.53,1-7.26,3.79           c-0.03,0.03-0.05,0.05-0.08,0.08c-0.2,0.18-4.34,3.91-11.71,5.82c3.61,3.62,11.52,10.28,23.41,13.71           c2.01,0.56,4.5,0.82,5.1,0.52c0.98-0.49,2.19-0.11,2.69,0.87c0.5,0.98,0.13,2.17-0.85,2.68           C39.38,46.82,38.33,46.97,37.25,46.97z"/></g></g></g></g></g><g><g><g><g><g><path d="M11.24,33.51c-0.42,0-0.81-0.27-0.95-0.69c-0.17-0.53,0.12-1.09,0.64-1.26c0.1-0.03,10.24-3.36,14.5-7.38           c0.4-0.38,1.04-0.36,1.41,0.04c0.38,0.4,0.36,1.03-0.04,1.41c-4.59,4.33-14.82,7.69-15.26,7.83           C11.44,33.5,11.34,33.51,11.24,33.51z"/></g></g></g></g></g><g><g><g><g><g><path d="M16.44,37.53c-0.43,0-0.83-0.28-0.96-0.72c-0.15-0.53,0.15-1.09,0.68-1.24c0.08-0.02,8.22-2.42,11.7-5.35           c0.43-0.36,1.05-0.3,1.41,0.12c0.36,0.42,0.3,1.05-0.12,1.41c-3.79,3.2-12.07,5.63-12.42,5.74           C16.63,37.52,16.53,37.53,16.44,37.53z"/></g></g></g></g></g><g><g><g><g><g><path d="M22.95,41.21c-0.41,0-0.79-0.25-0.94-0.66c-0.19-0.52,0.08-1.09,0.6-1.28c0.06-0.02,5.73-2.08,8.42-3.84           c0.46-0.3,1.08-0.18,1.38,0.29c0.3,0.46,0.17,1.08-0.29,1.38c-2.88,1.89-8.6,3.96-8.84,4.05           C23.18,41.19,23.07,41.21,22.95,41.21z"/></g></g></g></g></g></g><g><g><g><g><g><path d="M50.33,79.88c-0.79,0-1.54-0.48-1.86-1.26c-0.41-1.03,0.09-2.19,1.11-2.6c1.75-0.7,3.17-1.42,3.99-2.02          c0.9-0.65,2.15-0.45,2.79,0.44c0.65,0.89,0.45,2.14-0.44,2.79c-1.12,0.81-2.75,1.65-4.86,2.49          C50.83,79.84,50.58,79.88,50.33,79.88z"/></g></g></g></g></g><g><g><g><g><g><path d="M49.67,79.88c-0.25,0-0.5-0.05-0.74-0.14c-4.5-1.8-6.79-3.63-7.23-5.77c-0.25-1.21,0.13-2.39,1.07-3.32          c2.35-2.34,8.83-4.64,12.48-5.8c0.1-0.03,0.2-0.09,0.28-0.17c0.4-0.4,0.36-0.58,0.34-0.66c-0.34-1.51-4.7-4.04-8.4-5.37          c-7.29-2.77-11.71-6.47-12.17-10.15c-0.15-1.21,0.02-3.54,2.83-5.51c0.91-0.63,2.15-0.41,2.79,0.49          c0.63,0.91,0.41,2.15-0.49,2.79c-1.26,0.88-1.18,1.53-1.16,1.74c0.2,1.64,3.29,4.5,9.59,6.89c1.62,0.58,9.9,3.76,10.91,8.24          c0.35,1.55-0.15,3.1-1.41,4.36c-0.53,0.53-1.19,0.93-1.9,1.16c-5.09,1.62-9.33,3.47-10.71,4.67          c0.32,0.4,1.39,1.38,4.67,2.69c1.03,0.41,1.52,1.57,1.11,2.6C51.21,79.41,50.46,79.88,49.67,79.88z"/></g></g></g></g></g><g><g><g><g><g><path d="M40.41,47.07c-1.14,0-2.13-0.42-2.75-1.25c-0.49-0.65-0.68-1.49-0.53-2.35c0.23-1.3,1.2-2.61,2.67-3.59          c2.44-1.62,5.1-1.59,6.33,0.05c0.49,0.65,0.68,1.49,0.53,2.35c-0.23,1.3-1.2,2.61-2.67,3.59h0          C42.79,46.67,41.52,47.07,40.41,47.07z M42.89,44.2L42.89,44.2L42.89,44.2z"/></g></g></g></g></g></g><g><g><g><g><g><g><g><path d="M62.85,46.76c-0.76,0-1.56-0.04-2.38-0.15c-1.09-0.14-1.87-1.15-1.72-2.24s1.16-1.87,2.24-1.72           c2.93,0.39,5.79-0.32,5.82-0.33c11.89-3.43,19.76-10.08,23.35-13.69c-7.38-1.91-11.53-5.65-11.72-5.83           c-0.03-0.02-0.05-0.05-0.08-0.08c-2.73-2.79-5.24-4.11-7.26-3.79c-2.09,0.32-3.18,2.28-3.38,2.67           c-6.45,12.77-12.15,14.53-17.34,14.53c-1.1,0-2-0.9-2-2s0.9-2,2-2c2.82,0,7.53,0,13.77-12.33           c0.49-0.98,2.41-4.21,6.34-4.82c3.37-0.52,6.97,1.13,10.68,4.9c0.41,0.35,5.14,4.32,13.12,5.51           c0.7,0.1,1.29,0.57,1.56,1.23c0.27,0.66,0.16,1.41-0.27,1.97c-0.39,0.5-9.67,12.39-27.73,17.59           C67.7,46.22,65.55,46.76,62.85,46.76z"/></g></g></g></g></g><g><g><g><g><g><path d="M88.76,33.51c-0.1,0-0.21-0.02-0.31-0.05c-0.43-0.14-10.66-3.5-15.26-7.83c-0.4-0.38-0.42-1.01-0.04-1.41           c0.38-0.4,1.01-0.42,1.41-0.04c4.27,4.02,14.4,7.35,14.5,7.38c0.52,0.17,0.81,0.74,0.64,1.26           C89.58,33.24,89.19,33.51,88.76,33.51z"/></g></g></g></g></g><g><g><g><g><g><path d="M83.56,37.53c-0.09,0-0.19-0.01-0.28-0.04c-0.35-0.1-8.63-2.54-12.43-5.74c-0.42-0.36-0.48-0.99-0.12-1.41           c0.35-0.42,0.99-0.48,1.41-0.12c3.48,2.93,11.62,5.32,11.7,5.35c0.53,0.15,0.83,0.71,0.68,1.24           C84.39,37.25,83.99,37.53,83.56,37.53z"/></g></g></g></g></g><g><g><g><g><g><path d="M77.04,41.21c-0.11,0-0.23-0.02-0.34-0.06c-0.24-0.09-5.96-2.15-8.84-4.05c-0.46-0.3-0.59-0.92-0.29-1.38           c0.3-0.46,0.93-0.59,1.38-0.29c2.68,1.76,8.36,3.82,8.42,3.84c0.52,0.19,0.79,0.76,0.6,1.28           C77.84,40.95,77.45,41.21,77.04,41.21z"/></g></g></g></g></g></g><g><g><g><g><g><path d="M54.76,77.63c-0.61,0-1.21-0.28-1.6-0.8c-0.66-0.88-0.48-2.14,0.4-2.8c0.44-0.33,0.64-0.56,0.73-0.69          c-0.52-0.67-2.9-1.71-5.05-2.18c-0.04-0.01-0.08-0.02-0.12-0.03c-5.67-1.61-8.62-3.75-9-6.54c-0.3-2.2,1.09-4.37,3.94-6.12          c2.85-1.75,10.58-5.21,11.58-5.66c3.67-2.11,5.02-4.01,5.07-4.99c0.01-0.19,0.04-0.75-1.11-1.55          c-0.9-0.63-1.12-1.88-0.49-2.79c0.63-0.91,1.88-1.12,2.79-0.49c2.43,1.71,2.87,3.67,2.81,5.01          c-0.13,2.84-2.61,5.72-7.16,8.33c-0.06,0.03-0.12,0.06-0.18,0.09c-0.08,0.04-8.45,3.76-11.21,5.45          c-1.59,0.98-2.12,1.85-2.07,2.17c0,0.02,0.28,1.57,6.08,3.23c1.8,0.4,7.37,1.9,8.1,5.29c0.25,1.16,0.06,2.91-2.3,4.67          C55.59,77.5,55.17,77.63,54.76,77.63z M56.54,54.59L56.54,54.59L56.54,54.59z"/></g></g></g></g></g><g><g><g><g><g><path d="M59.59,47.07c-1.12,0-2.38-0.4-3.58-1.2l0,0c-1.47-0.98-2.44-2.28-2.67-3.59c-0.15-0.86,0.04-1.69,0.53-2.35          c1.22-1.64,3.88-1.66,6.33-0.05c1.47,0.98,2.44,2.28,2.67,3.59c0.15,0.86-0.04,1.69-0.53,2.35          C61.72,46.65,60.73,47.07,59.59,47.07z"/></g></g></g></g></g></g></g></g><text x="0" y="115" fill="#000000" font-size="5px" font-weight="bold" font-family="'Helvetica Neue', Helvetica, Arial-Unicode, Arial, Sans-serif">Created by Line Icons Pro</text><text x="0" y="120" fill="#000000" font-size="5px" font-weight="bold" font-family="'Helvetica Neue', Helvetica, Arial-Unicode, Arial, Sans-serif">from the Noun Project</text></svg>